<mxfile host="app.diagrams.net" agent="Mozilla/5.0 (Windows NT 10.0; Win64; x64) AppleWebKit/537.36 (KHTML, like Gecko) Chrome/141.0.0.0 Safari/537.36" version="28.2.7">
  <diagram name="PÃ¡gina-1" id="eG7gM5Uu6pWnqkdywG2B">
    <mxGraphModel dx="797" dy="451" grid="1" gridSize="10" guides="1" tooltips="1" connect="1" arrows="1" fold="1" page="1" pageScale="1" pageWidth="827" pageHeight="1169" math="0" shadow="0">
      <root>
        <mxCell id="0" />
        <mxCell id="1" parent="0" />
        <mxCell id="V687pgNk-LpB3f5WRCrV-1" value="Venda" style="whiteSpace=wrap;html=1;align=center;" vertex="1" parent="1">
          <mxGeometry x="364" y="200" width="100" height="40" as="geometry" />
        </mxCell>
        <mxCell id="V687pgNk-LpB3f5WRCrV-2" value="Produto" style="whiteSpace=wrap;html=1;align=center;" vertex="1" parent="1">
          <mxGeometry x="364" y="400" width="100" height="40" as="geometry" />
        </mxCell>
        <mxCell id="V687pgNk-LpB3f5WRCrV-3" value="Cliente" style="whiteSpace=wrap;html=1;align=center;" vertex="1" parent="1">
          <mxGeometry x="40" y="200" width="100" height="40" as="geometry" />
        </mxCell>
        <mxCell id="V687pgNk-LpB3f5WRCrV-4" value="Vendedor" style="whiteSpace=wrap;html=1;align=center;" vertex="1" parent="1">
          <mxGeometry x="364" y="10" width="100" height="40" as="geometry" />
        </mxCell>
        <mxCell id="V687pgNk-LpB3f5WRCrV-5" value="Compra" style="shape=rhombus;perimeter=rhombusPerimeter;whiteSpace=wrap;html=1;align=center;" vertex="1" parent="1">
          <mxGeometry x="190" y="200" width="100" height="40" as="geometry" />
        </mxCell>
        <mxCell id="V687pgNk-LpB3f5WRCrV-6" value="" style="edgeStyle=entityRelationEdgeStyle;fontSize=12;html=1;endArrow=ERmandOne;startArrow=ERmandOne;rounded=0;entryX=1;entryY=0.5;entryDx=0;entryDy=0;exitX=0;exitY=0.5;exitDx=0;exitDy=0;" edge="1" parent="1" source="V687pgNk-LpB3f5WRCrV-5" target="V687pgNk-LpB3f5WRCrV-3">
          <mxGeometry width="100" height="100" relative="1" as="geometry">
            <mxPoint x="360" y="290" as="sourcePoint" />
            <mxPoint x="460" y="190" as="targetPoint" />
          </mxGeometry>
        </mxCell>
        <mxCell id="V687pgNk-LpB3f5WRCrV-7" value="(1,1)" style="edgeLabel;html=1;align=center;verticalAlign=middle;resizable=0;points=[];" vertex="1" connectable="0" parent="V687pgNk-LpB3f5WRCrV-6">
          <mxGeometry x="0.2571" relative="1" as="geometry">
            <mxPoint as="offset" />
          </mxGeometry>
        </mxCell>
        <mxCell id="V687pgNk-LpB3f5WRCrV-8" value="" style="edgeStyle=entityRelationEdgeStyle;fontSize=12;html=1;endArrow=ERoneToMany;rounded=0;entryX=0;entryY=0.5;entryDx=0;entryDy=0;exitX=1;exitY=0.5;exitDx=0;exitDy=0;" edge="1" parent="1" source="V687pgNk-LpB3f5WRCrV-5" target="V687pgNk-LpB3f5WRCrV-1">
          <mxGeometry width="100" height="100" relative="1" as="geometry">
            <mxPoint x="360" y="290" as="sourcePoint" />
            <mxPoint x="460" y="190" as="targetPoint" />
          </mxGeometry>
        </mxCell>
        <mxCell id="V687pgNk-LpB3f5WRCrV-9" value="(1,n)" style="edgeLabel;html=1;align=center;verticalAlign=middle;resizable=0;points=[];" vertex="1" connectable="0" parent="V687pgNk-LpB3f5WRCrV-8">
          <mxGeometry x="-0.0811" y="-1" relative="1" as="geometry">
            <mxPoint as="offset" />
          </mxGeometry>
        </mxCell>
        <mxCell id="V687pgNk-LpB3f5WRCrV-10" value="Vende" style="shape=rhombus;perimeter=rhombusPerimeter;whiteSpace=wrap;html=1;align=center;" vertex="1" parent="1">
          <mxGeometry x="372" y="100" width="84" height="50" as="geometry" />
        </mxCell>
        <mxCell id="V687pgNk-LpB3f5WRCrV-13" value="" style="edgeStyle=orthogonalEdgeStyle;fontSize=12;html=1;endArrow=ERoneToMany;rounded=0;curved=1;entryX=0.5;entryY=0;entryDx=0;entryDy=0;exitX=0.5;exitY=1;exitDx=0;exitDy=0;" edge="1" parent="1" source="V687pgNk-LpB3f5WRCrV-10" target="V687pgNk-LpB3f5WRCrV-1">
          <mxGeometry width="100" height="100" relative="1" as="geometry">
            <mxPoint x="360" y="290" as="sourcePoint" />
            <mxPoint x="460" y="190" as="targetPoint" />
          </mxGeometry>
        </mxCell>
        <mxCell id="V687pgNk-LpB3f5WRCrV-14" value="(1,n)" style="edgeLabel;html=1;align=center;verticalAlign=middle;resizable=0;points=[];" vertex="1" connectable="0" parent="V687pgNk-LpB3f5WRCrV-13">
          <mxGeometry x="-0.2667" y="-1" relative="1" as="geometry">
            <mxPoint as="offset" />
          </mxGeometry>
        </mxCell>
        <mxCell id="V687pgNk-LpB3f5WRCrV-15" value="" style="edgeStyle=orthogonalEdgeStyle;fontSize=12;html=1;endArrow=ERmandOne;startArrow=ERmandOne;rounded=0;curved=1;entryX=0.5;entryY=1;entryDx=0;entryDy=0;exitX=0.5;exitY=0;exitDx=0;exitDy=0;" edge="1" parent="1" source="V687pgNk-LpB3f5WRCrV-10" target="V687pgNk-LpB3f5WRCrV-4">
          <mxGeometry width="100" height="100" relative="1" as="geometry">
            <mxPoint x="360" y="290" as="sourcePoint" />
            <mxPoint x="460" y="190" as="targetPoint" />
          </mxGeometry>
        </mxCell>
        <mxCell id="V687pgNk-LpB3f5WRCrV-16" value="(1,1)" style="edgeLabel;html=1;align=center;verticalAlign=middle;resizable=0;points=[];fontFamily=Helvetica;fontSize=12;fontColor=default;labelBackgroundColor=default;" vertex="1" connectable="0" parent="V687pgNk-LpB3f5WRCrV-15">
          <mxGeometry x="-0.0133" y="-2" relative="1" as="geometry">
            <mxPoint as="offset" />
          </mxGeometry>
        </mxCell>
        <mxCell id="V687pgNk-LpB3f5WRCrV-17" value="ItemVenda" style="shape=associativeEntity;whiteSpace=wrap;html=1;align=center;fontFamily=Helvetica;fontSize=12;fontColor=default;labelBackgroundColor=default;" vertex="1" parent="1">
          <mxGeometry x="362" y="300" width="104" height="50" as="geometry" />
        </mxCell>
        <mxCell id="V687pgNk-LpB3f5WRCrV-26" value="" style="edgeStyle=orthogonalEdgeStyle;fontSize=12;html=1;endArrow=ERzeroToMany;endFill=1;rounded=0;strokeColor=default;align=center;verticalAlign=middle;fontFamily=Helvetica;fontColor=default;labelBackgroundColor=default;curved=1;entryX=0.5;entryY=1;entryDx=0;entryDy=0;exitX=0.5;exitY=0;exitDx=0;exitDy=0;" edge="1" parent="1" source="V687pgNk-LpB3f5WRCrV-17" target="V687pgNk-LpB3f5WRCrV-1">
          <mxGeometry width="100" height="100" relative="1" as="geometry">
            <mxPoint x="360" y="290" as="sourcePoint" />
            <mxPoint x="460" y="190" as="targetPoint" />
          </mxGeometry>
        </mxCell>
        <mxCell id="V687pgNk-LpB3f5WRCrV-27" value="(0,n)" style="edgeLabel;html=1;align=center;verticalAlign=middle;resizable=0;points=[];fontFamily=Helvetica;fontSize=12;fontColor=default;labelBackgroundColor=default;" vertex="1" connectable="0" parent="V687pgNk-LpB3f5WRCrV-26">
          <mxGeometry x="-0.1778" relative="1" as="geometry">
            <mxPoint as="offset" />
          </mxGeometry>
        </mxCell>
        <mxCell id="V687pgNk-LpB3f5WRCrV-28" value="" style="edgeStyle=orthogonalEdgeStyle;fontSize=12;html=1;endArrow=ERoneToMany;rounded=0;strokeColor=default;align=center;verticalAlign=middle;fontFamily=Helvetica;fontColor=default;labelBackgroundColor=default;curved=1;entryX=0.5;entryY=0;entryDx=0;entryDy=0;exitX=0.5;exitY=1;exitDx=0;exitDy=0;" edge="1" parent="1" source="V687pgNk-LpB3f5WRCrV-17" target="V687pgNk-LpB3f5WRCrV-2">
          <mxGeometry width="100" height="100" relative="1" as="geometry">
            <mxPoint x="360" y="290" as="sourcePoint" />
            <mxPoint x="460" y="190" as="targetPoint" />
          </mxGeometry>
        </mxCell>
        <mxCell id="V687pgNk-LpB3f5WRCrV-29" value="(1,n)" style="edgeLabel;html=1;align=center;verticalAlign=middle;resizable=0;points=[];fontFamily=Helvetica;fontSize=12;fontColor=default;labelBackgroundColor=default;" vertex="1" connectable="0" parent="V687pgNk-LpB3f5WRCrV-28">
          <mxGeometry x="-0.3067" y="1" relative="1" as="geometry">
            <mxPoint as="offset" />
          </mxGeometry>
        </mxCell>
        <mxCell id="V687pgNk-LpB3f5WRCrV-37" style="edgeStyle=orthogonalEdgeStyle;shape=connector;curved=1;rounded=0;orthogonalLoop=1;jettySize=auto;html=1;entryX=0.5;entryY=0;entryDx=0;entryDy=0;strokeColor=default;align=center;verticalAlign=middle;fontFamily=Helvetica;fontSize=12;fontColor=default;labelBackgroundColor=default;startArrow=none;endArrow=none;endFill=0;startFill=0;" edge="1" parent="1" source="V687pgNk-LpB3f5WRCrV-30" target="V687pgNk-LpB3f5WRCrV-3">
          <mxGeometry relative="1" as="geometry" />
        </mxCell>
        <mxCell id="V687pgNk-LpB3f5WRCrV-30" value="CPF" style="ellipse;whiteSpace=wrap;html=1;align=center;fontStyle=4;fontFamily=Helvetica;fontSize=12;fontColor=default;labelBackgroundColor=default;" vertex="1" parent="1">
          <mxGeometry x="65" y="160" width="50" height="20" as="geometry" />
        </mxCell>
        <mxCell id="V687pgNk-LpB3f5WRCrV-58" style="edgeStyle=orthogonalEdgeStyle;shape=connector;curved=1;rounded=0;orthogonalLoop=1;jettySize=auto;html=1;entryX=1;entryY=0.5;entryDx=0;entryDy=0;strokeColor=default;align=center;verticalAlign=middle;fontFamily=Helvetica;fontSize=12;fontColor=default;labelBackgroundColor=default;startArrow=none;startFill=0;endArrow=none;endFill=0;" edge="1" parent="1" target="V687pgNk-LpB3f5WRCrV-17">
          <mxGeometry relative="1" as="geometry">
            <mxPoint x="500" y="340" as="sourcePoint" />
          </mxGeometry>
        </mxCell>
        <mxCell id="V687pgNk-LpB3f5WRCrV-50" style="edgeStyle=orthogonalEdgeStyle;shape=connector;curved=1;rounded=0;orthogonalLoop=1;jettySize=auto;html=1;entryX=0;entryY=0.5;entryDx=0;entryDy=0;strokeColor=default;align=center;verticalAlign=middle;fontFamily=Helvetica;fontSize=12;fontColor=default;labelBackgroundColor=default;startArrow=none;startFill=0;endArrow=none;endFill=0;" edge="1" parent="1" source="V687pgNk-LpB3f5WRCrV-32" target="V687pgNk-LpB3f5WRCrV-2">
          <mxGeometry relative="1" as="geometry" />
        </mxCell>
        <mxCell id="V687pgNk-LpB3f5WRCrV-32" value="CÃ³digo" style="ellipse;whiteSpace=wrap;html=1;align=center;fontStyle=4;fontFamily=Helvetica;fontSize=12;fontColor=default;labelBackgroundColor=default;" vertex="1" parent="1">
          <mxGeometry x="280" y="410" width="50" height="20" as="geometry" />
        </mxCell>
        <mxCell id="V687pgNk-LpB3f5WRCrV-61" style="edgeStyle=orthogonalEdgeStyle;shape=connector;curved=1;rounded=0;orthogonalLoop=1;jettySize=auto;html=1;entryX=1;entryY=0.5;entryDx=0;entryDy=0;strokeColor=default;align=center;verticalAlign=middle;fontFamily=Helvetica;fontSize=12;fontColor=default;labelBackgroundColor=default;startArrow=none;startFill=0;endArrow=none;endFill=0;" edge="1" parent="1" source="V687pgNk-LpB3f5WRCrV-33" target="V687pgNk-LpB3f5WRCrV-1">
          <mxGeometry relative="1" as="geometry" />
        </mxCell>
        <mxCell id="V687pgNk-LpB3f5WRCrV-33" value="CÃ³digo" style="ellipse;whiteSpace=wrap;html=1;align=center;fontStyle=4;fontFamily=Helvetica;fontSize=12;fontColor=default;labelBackgroundColor=default;" vertex="1" parent="1">
          <mxGeometry x="490" y="190" width="50" height="20" as="geometry" />
        </mxCell>
        <mxCell id="V687pgNk-LpB3f5WRCrV-69" value="" style="edgeStyle=orthogonalEdgeStyle;shape=connector;curved=1;rounded=0;orthogonalLoop=1;jettySize=auto;html=1;strokeColor=default;align=center;verticalAlign=middle;fontFamily=Helvetica;fontSize=12;fontColor=default;labelBackgroundColor=default;startArrow=none;startFill=0;endArrow=none;endFill=0;" edge="1" parent="1" source="V687pgNk-LpB3f5WRCrV-34" target="V687pgNk-LpB3f5WRCrV-4">
          <mxGeometry relative="1" as="geometry" />
        </mxCell>
        <mxCell id="V687pgNk-LpB3f5WRCrV-34" value="MatrÃ­cula" style="ellipse;whiteSpace=wrap;html=1;align=center;fontStyle=4;fontFamily=Helvetica;fontSize=12;fontColor=default;labelBackgroundColor=default;" vertex="1" parent="1">
          <mxGeometry x="520" y="50" width="50" height="20" as="geometry" />
        </mxCell>
        <mxCell id="V687pgNk-LpB3f5WRCrV-43" style="edgeStyle=orthogonalEdgeStyle;shape=connector;curved=1;rounded=0;orthogonalLoop=1;jettySize=auto;html=1;entryX=0.5;entryY=1;entryDx=0;entryDy=0;strokeColor=default;align=center;verticalAlign=middle;fontFamily=Helvetica;fontSize=12;fontColor=default;labelBackgroundColor=default;startArrow=none;startFill=0;endArrow=none;endFill=0;" edge="1" parent="1" source="V687pgNk-LpB3f5WRCrV-38" target="V687pgNk-LpB3f5WRCrV-3">
          <mxGeometry relative="1" as="geometry" />
        </mxCell>
        <mxCell id="V687pgNk-LpB3f5WRCrV-38" value="Nome" style="ellipse;whiteSpace=wrap;html=1;align=center;fontFamily=Helvetica;fontSize=12;fontColor=default;labelBackgroundColor=default;" vertex="1" parent="1">
          <mxGeometry x="30" y="270" width="50" height="20" as="geometry" />
        </mxCell>
        <mxCell id="V687pgNk-LpB3f5WRCrV-42" style="edgeStyle=orthogonalEdgeStyle;shape=connector;curved=1;rounded=0;orthogonalLoop=1;jettySize=auto;html=1;entryX=0.5;entryY=1;entryDx=0;entryDy=0;strokeColor=default;align=center;verticalAlign=middle;fontFamily=Helvetica;fontSize=12;fontColor=default;labelBackgroundColor=default;startArrow=none;startFill=0;endArrow=none;endFill=0;" edge="1" parent="1" source="V687pgNk-LpB3f5WRCrV-41" target="V687pgNk-LpB3f5WRCrV-3">
          <mxGeometry relative="1" as="geometry" />
        </mxCell>
        <mxCell id="V687pgNk-LpB3f5WRCrV-41" value="Telefone" style="ellipse;whiteSpace=wrap;html=1;align=center;fontFamily=Helvetica;fontSize=12;fontColor=default;labelBackgroundColor=default;" vertex="1" parent="1">
          <mxGeometry x="110" y="270" width="50" height="20" as="geometry" />
        </mxCell>
        <mxCell id="V687pgNk-LpB3f5WRCrV-45" style="edgeStyle=orthogonalEdgeStyle;shape=connector;curved=1;rounded=0;orthogonalLoop=1;jettySize=auto;html=1;entryX=0.5;entryY=1;entryDx=0;entryDy=0;strokeColor=default;align=center;verticalAlign=middle;fontFamily=Helvetica;fontSize=12;fontColor=default;labelBackgroundColor=default;startArrow=none;startFill=0;endArrow=none;endFill=0;" edge="1" parent="1" source="V687pgNk-LpB3f5WRCrV-44" target="V687pgNk-LpB3f5WRCrV-3">
          <mxGeometry relative="1" as="geometry" />
        </mxCell>
        <mxCell id="V687pgNk-LpB3f5WRCrV-44" value="EndereÃ§o" style="ellipse;whiteSpace=wrap;html=1;align=center;fontFamily=Helvetica;fontSize=12;fontColor=default;labelBackgroundColor=default;" vertex="1" parent="1">
          <mxGeometry x="65" y="290" width="50" height="20" as="geometry" />
        </mxCell>
        <mxCell id="V687pgNk-LpB3f5WRCrV-54" style="edgeStyle=orthogonalEdgeStyle;shape=connector;curved=1;rounded=0;orthogonalLoop=1;jettySize=auto;html=1;entryX=0.5;entryY=1;entryDx=0;entryDy=0;strokeColor=default;align=center;verticalAlign=middle;fontFamily=Helvetica;fontSize=12;fontColor=default;labelBackgroundColor=default;startArrow=none;startFill=0;endArrow=none;endFill=0;" edge="1" parent="1" source="V687pgNk-LpB3f5WRCrV-46" target="V687pgNk-LpB3f5WRCrV-2">
          <mxGeometry relative="1" as="geometry" />
        </mxCell>
        <mxCell id="V687pgNk-LpB3f5WRCrV-46" value="DescriÃ§Ã£o" style="ellipse;whiteSpace=wrap;html=1;align=center;fontFamily=Helvetica;fontSize=12;fontColor=default;labelBackgroundColor=default;" vertex="1" parent="1">
          <mxGeometry x="350" y="470" width="50" height="20" as="geometry" />
        </mxCell>
        <mxCell id="V687pgNk-LpB3f5WRCrV-53" style="edgeStyle=orthogonalEdgeStyle;shape=connector;curved=1;rounded=0;orthogonalLoop=1;jettySize=auto;html=1;entryX=0.5;entryY=1;entryDx=0;entryDy=0;strokeColor=default;align=center;verticalAlign=middle;fontFamily=Helvetica;fontSize=12;fontColor=default;labelBackgroundColor=default;startArrow=none;startFill=0;endArrow=none;endFill=0;" edge="1" parent="1" source="V687pgNk-LpB3f5WRCrV-47" target="V687pgNk-LpB3f5WRCrV-2">
          <mxGeometry relative="1" as="geometry" />
        </mxCell>
        <mxCell id="V687pgNk-LpB3f5WRCrV-47" value="Estoque" style="ellipse;whiteSpace=wrap;html=1;align=center;fontFamily=Helvetica;fontSize=12;fontColor=default;labelBackgroundColor=default;" vertex="1" parent="1">
          <mxGeometry x="430" y="470" width="50" height="20" as="geometry" />
        </mxCell>
        <mxCell id="V687pgNk-LpB3f5WRCrV-55" value="" style="edgeStyle=orthogonalEdgeStyle;shape=connector;curved=1;rounded=0;orthogonalLoop=1;jettySize=auto;html=1;strokeColor=default;align=center;verticalAlign=middle;fontFamily=Helvetica;fontSize=12;fontColor=default;labelBackgroundColor=default;startArrow=none;startFill=0;endArrow=none;endFill=0;" edge="1" parent="1" source="V687pgNk-LpB3f5WRCrV-48" target="V687pgNk-LpB3f5WRCrV-2">
          <mxGeometry relative="1" as="geometry" />
        </mxCell>
        <mxCell id="V687pgNk-LpB3f5WRCrV-48" value="PreÃ§o" style="ellipse;whiteSpace=wrap;html=1;align=center;fontFamily=Helvetica;fontSize=12;fontColor=default;labelBackgroundColor=default;" vertex="1" parent="1">
          <mxGeometry x="389" y="490" width="50" height="20" as="geometry" />
        </mxCell>
        <mxCell id="V687pgNk-LpB3f5WRCrV-56" value="" style="edgeStyle=orthogonalEdgeStyle;shape=connector;curved=1;rounded=0;orthogonalLoop=1;jettySize=auto;html=1;strokeColor=default;align=center;verticalAlign=middle;fontFamily=Helvetica;fontSize=12;fontColor=default;labelBackgroundColor=default;startArrow=none;startFill=0;endArrow=none;endFill=0;" edge="1" parent="1" source="V687pgNk-LpB3f5WRCrV-49" target="V687pgNk-LpB3f5WRCrV-2">
          <mxGeometry relative="1" as="geometry" />
        </mxCell>
        <mxCell id="V687pgNk-LpB3f5WRCrV-49" value="Categoria" style="ellipse;whiteSpace=wrap;html=1;align=center;fontFamily=Helvetica;fontSize=12;fontColor=default;labelBackgroundColor=default;" vertex="1" parent="1">
          <mxGeometry x="500" y="410" width="50" height="20" as="geometry" />
        </mxCell>
        <mxCell id="V687pgNk-LpB3f5WRCrV-59" style="edgeStyle=orthogonalEdgeStyle;shape=connector;curved=1;rounded=0;orthogonalLoop=1;jettySize=auto;html=1;entryX=1;entryY=0.5;entryDx=0;entryDy=0;strokeColor=default;align=center;verticalAlign=middle;fontFamily=Helvetica;fontSize=12;fontColor=default;labelBackgroundColor=default;startArrow=none;startFill=0;endArrow=none;endFill=0;" edge="1" parent="1" source="V687pgNk-LpB3f5WRCrV-57" target="V687pgNk-LpB3f5WRCrV-17">
          <mxGeometry relative="1" as="geometry" />
        </mxCell>
        <mxCell id="V687pgNk-LpB3f5WRCrV-57" value="Valor Unitario" style="ellipse;whiteSpace=wrap;html=1;align=center;fontFamily=Helvetica;fontSize=12;fontColor=default;labelBackgroundColor=default;" vertex="1" parent="1">
          <mxGeometry x="500" y="290" width="60" height="30" as="geometry" />
        </mxCell>
        <mxCell id="V687pgNk-LpB3f5WRCrV-60" value="Quantidade" style="ellipse;whiteSpace=wrap;html=1;align=center;fontFamily=Helvetica;fontSize=12;fontColor=default;labelBackgroundColor=default;" vertex="1" parent="1">
          <mxGeometry x="500" y="330" width="50" height="20" as="geometry" />
        </mxCell>
        <mxCell id="V687pgNk-LpB3f5WRCrV-63" style="edgeStyle=orthogonalEdgeStyle;shape=connector;curved=1;rounded=0;orthogonalLoop=1;jettySize=auto;html=1;entryX=1;entryY=0.5;entryDx=0;entryDy=0;strokeColor=default;align=center;verticalAlign=middle;fontFamily=Helvetica;fontSize=12;fontColor=default;labelBackgroundColor=default;startArrow=none;startFill=0;endArrow=none;endFill=0;" edge="1" parent="1" source="V687pgNk-LpB3f5WRCrV-62" target="V687pgNk-LpB3f5WRCrV-1">
          <mxGeometry relative="1" as="geometry" />
        </mxCell>
        <mxCell id="V687pgNk-LpB3f5WRCrV-62" value="Data" style="ellipse;whiteSpace=wrap;html=1;align=center;fontFamily=Helvetica;fontSize=12;fontColor=default;labelBackgroundColor=default;" vertex="1" parent="1">
          <mxGeometry x="490" y="230" width="50" height="20" as="geometry" />
        </mxCell>
        <mxCell id="V687pgNk-LpB3f5WRCrV-66" style="edgeStyle=orthogonalEdgeStyle;shape=connector;curved=1;rounded=0;orthogonalLoop=1;jettySize=auto;html=1;entryX=1;entryY=0.5;entryDx=0;entryDy=0;strokeColor=default;align=center;verticalAlign=middle;fontFamily=Helvetica;fontSize=12;fontColor=default;labelBackgroundColor=default;startArrow=none;startFill=0;endArrow=none;endFill=0;" edge="1" parent="1" source="V687pgNk-LpB3f5WRCrV-64" target="V687pgNk-LpB3f5WRCrV-1">
          <mxGeometry relative="1" as="geometry" />
        </mxCell>
        <mxCell id="V687pgNk-LpB3f5WRCrV-64" value="F.Pagamento" style="ellipse;whiteSpace=wrap;html=1;align=center;fontFamily=Helvetica;fontSize=12;fontColor=default;labelBackgroundColor=default;" vertex="1" parent="1">
          <mxGeometry x="530" y="210" width="50" height="20" as="geometry" />
        </mxCell>
        <mxCell id="V687pgNk-LpB3f5WRCrV-67" value="Valor T" style="ellipse;whiteSpace=wrap;html=1;align=center;fontFamily=Helvetica;fontSize=12;fontColor=default;labelBackgroundColor=default;" vertex="1" parent="1">
          <mxGeometry x="470" y="160" width="50" height="20" as="geometry" />
        </mxCell>
        <mxCell id="V687pgNk-LpB3f5WRCrV-68" style="edgeStyle=orthogonalEdgeStyle;shape=connector;curved=1;rounded=0;orthogonalLoop=1;jettySize=auto;html=1;entryX=0.863;entryY=-0.033;entryDx=0;entryDy=0;entryPerimeter=0;strokeColor=default;align=center;verticalAlign=middle;fontFamily=Helvetica;fontSize=12;fontColor=default;labelBackgroundColor=default;startArrow=none;startFill=0;endArrow=none;endFill=0;" edge="1" parent="1" source="V687pgNk-LpB3f5WRCrV-67" target="V687pgNk-LpB3f5WRCrV-1">
          <mxGeometry relative="1" as="geometry" />
        </mxCell>
        <mxCell id="V687pgNk-LpB3f5WRCrV-71" value="" style="edgeStyle=orthogonalEdgeStyle;shape=connector;curved=1;rounded=0;orthogonalLoop=1;jettySize=auto;html=1;strokeColor=default;align=center;verticalAlign=middle;fontFamily=Helvetica;fontSize=12;fontColor=default;labelBackgroundColor=default;startArrow=none;startFill=0;endArrow=none;endFill=0;" edge="1" parent="1" source="V687pgNk-LpB3f5WRCrV-70" target="V687pgNk-LpB3f5WRCrV-4">
          <mxGeometry relative="1" as="geometry" />
        </mxCell>
        <mxCell id="V687pgNk-LpB3f5WRCrV-70" value="nome" style="ellipse;whiteSpace=wrap;html=1;align=center;fontFamily=Helvetica;fontSize=12;fontColor=default;labelBackgroundColor=default;" vertex="1" parent="1">
          <mxGeometry x="500" width="50" height="20" as="geometry" />
        </mxCell>
        <mxCell id="V687pgNk-LpB3f5WRCrV-73" style="edgeStyle=orthogonalEdgeStyle;shape=connector;curved=1;rounded=0;orthogonalLoop=1;jettySize=auto;html=1;entryX=1;entryY=0.5;entryDx=0;entryDy=0;strokeColor=default;align=center;verticalAlign=middle;fontFamily=Helvetica;fontSize=12;fontColor=default;labelBackgroundColor=default;startArrow=none;startFill=0;endArrow=none;endFill=0;" edge="1" parent="1" source="V687pgNk-LpB3f5WRCrV-72" target="V687pgNk-LpB3f5WRCrV-4">
          <mxGeometry relative="1" as="geometry" />
        </mxCell>
        <mxCell id="V687pgNk-LpB3f5WRCrV-72" value="Cargo" style="ellipse;whiteSpace=wrap;html=1;align=center;fontFamily=Helvetica;fontSize=12;fontColor=default;labelBackgroundColor=default;" vertex="1" parent="1">
          <mxGeometry x="530" y="20" width="50" height="20" as="geometry" />
        </mxCell>
        <mxCell id="V687pgNk-LpB3f5WRCrV-76" value="" style="edgeStyle=orthogonalEdgeStyle;shape=connector;curved=1;rounded=0;orthogonalLoop=1;jettySize=auto;html=1;strokeColor=default;align=center;verticalAlign=middle;fontFamily=Helvetica;fontSize=12;fontColor=default;labelBackgroundColor=default;startArrow=none;startFill=0;endArrow=none;endFill=0;" edge="1" parent="1" source="V687pgNk-LpB3f5WRCrV-75" target="V687pgNk-LpB3f5WRCrV-4">
          <mxGeometry relative="1" as="geometry" />
        </mxCell>
        <mxCell id="V687pgNk-LpB3f5WRCrV-75" value="ComissÃ£o%" style="ellipse;whiteSpace=wrap;html=1;align=center;fontFamily=Helvetica;fontSize=12;fontColor=default;labelBackgroundColor=default;" vertex="1" parent="1">
          <mxGeometry x="280" y="20" width="50" height="20" as="geometry" />
        </mxCell>
        <mxCell id="V687pgNk-LpB3f5WRCrV-77" value="Cliente: CPFCli, NomeCli, EndeCli, TelCli" style="text;strokeColor=none;fillColor=none;spacingLeft=4;spacingRight=4;overflow=hidden;rotatable=0;points=[[0,0.5],[1,0.5]];portConstraint=eastwest;fontSize=12;whiteSpace=wrap;html=1;fontFamily=Helvetica;fontColor=default;labelBackgroundColor=default;" vertex="1" parent="1">
          <mxGeometry x="40" y="570" width="340" height="30" as="geometry" />
        </mxCell>
        <mxCell id="V687pgNk-LpB3f5WRCrV-79" value="Vendedor: MatVendedor, NomVendedor,&amp;nbsp; CarVendedor, Com%Vendedor" style="text;strokeColor=none;fillColor=none;spacingLeft=4;spacingRight=4;overflow=hidden;rotatable=0;points=[[0,0.5],[1,0.5]];portConstraint=eastwest;fontSize=12;whiteSpace=wrap;html=1;fontFamily=Helvetica;fontColor=default;labelBackgroundColor=default;" vertex="1" parent="1">
          <mxGeometry x="40" y="600" width="470" height="30" as="geometry" />
        </mxCell>
        <mxCell id="V687pgNk-LpB3f5WRCrV-80" value="Venda: CodVenda, ValTVenda, FPagamentoVenda, DataVenda&amp;nbsp;" style="text;strokeColor=none;fillColor=none;spacingLeft=4;spacingRight=4;overflow=hidden;rotatable=0;points=[[0,0.5],[1,0.5]];portConstraint=eastwest;fontSize=12;whiteSpace=wrap;html=1;fontFamily=Helvetica;fontColor=default;labelBackgroundColor=default;" vertex="1" parent="1">
          <mxGeometry x="40" y="630" width="390" height="30" as="geometry" />
        </mxCell>
        <mxCell id="V687pgNk-LpB3f5WRCrV-81" value="ItemVenda: ValUniItemVenda, QtdItemvenda" style="text;strokeColor=none;fillColor=none;spacingLeft=4;spacingRight=4;overflow=hidden;rotatable=0;points=[[0,0.5],[1,0.5]];portConstraint=eastwest;fontSize=12;whiteSpace=wrap;html=1;fontFamily=Helvetica;fontColor=default;labelBackgroundColor=default;" vertex="1" parent="1">
          <mxGeometry x="40" y="660" width="340" height="30" as="geometry" />
        </mxCell>
        <mxCell id="V687pgNk-LpB3f5WRCrV-82" value="Produto: CodProd, CatProd, DescProd, PreProd, EstProd" style="text;strokeColor=none;fillColor=none;spacingLeft=4;spacingRight=4;overflow=hidden;rotatable=0;points=[[0,0.5],[1,0.5]];portConstraint=eastwest;fontSize=12;whiteSpace=wrap;html=1;fontFamily=Helvetica;fontColor=default;labelBackgroundColor=default;" vertex="1" parent="1">
          <mxGeometry x="40" y="690" width="340" height="30" as="geometry" />
        </mxCell>
      </root>
    </mxGraphModel>
  </diagram>
</mxfile>
